<svg width="602" height="81" viewBox="0 0 602 81" fill="none" xmlns="http://www.w3.org/2000/svg">
<path d="M13.997 31.651L16.4495 34.4504L18.8441 36.821L21.234 38.8254L23.6335 40.4684L26.0137 41.726L28.3987 42.6125L30.7548 43.1136L33.1013 43.2389L35.1972 43.0365L37.2546 42.5402L38.5556 42.0488L39.7794 41.4272L40.984 40.6419L42.1114 39.736L43.2052 38.676L44.2796 37.4377L45.2866 36.0838L46.2647 34.5709L47.2862 32.7737L48.2643 30.8416L50.0904 26.5726L51.7527 21.711L53.4439 15.746L53.4247 15.4617L53.2271 15.2594L52.2056 14.6474L51.3094 13.9199L50.5048 13.0526L49.8495 12.089L49.3388 11.0434L48.9871 9.93521L48.7991 8.78847L48.7799 7.61764L49.016 6.10953L49.5556 4.62551L50.1868 3.50768L50.9288 2.55366L51.8009 1.72011L52.7597 1.05519L54.0655 0.448093L55.4387 0.0963633L56.889 0L58.3344 0.158995L59.7269 0.573364L61.0326 1.22383L62.1698 2.07666L63.1527 3.14149L63.7694 4.0955L64.2561 5.16033L64.5885 6.28298L64.7668 7.50681L64.7957 8.47046L64.7234 9.37629L64.55 10.2677L64.2705 11.0964L63.6586 12.2721L62.8395 13.3272L61.7843 14.3198L60.4593 15.2738L60.2569 15.5195L60.228 15.8327L61.4663 20.5209L62.9599 25.0548L64.6945 29.4346L66.6844 33.6602L67.6963 35.3032L69.3586 37.5148L70.6691 38.9796L72.0857 40.2227L73.642 41.273L75.2802 42.0921L77.2027 42.7522L79.1878 43.1329L81.2645 43.2437L83.3556 43.0751L85.4419 42.6318L87.4944 41.9235L89.494 40.955L91.4165 39.7312L93.1896 38.3773L94.9097 36.8933L96.5431 35.2984L98.0897 33.6024L99.5545 31.8004L99.6653 31.5113L99.593 31.2077L98.8173 30.0128L98.2825 29.1263L97.8874 28.1867L97.6127 27.1604L97.473 26.11V24.9778L97.6127 23.8647L97.8874 22.7855L98.2873 21.7688L98.9956 20.5594L99.8966 19.5139L100.99 18.6129L102.224 17.919L103.554 17.4468L104.951 17.2108L106.334 17.2204L107.707 17.4854L108.141 17.6251L109.075 18.0202L109.919 18.4924L110.709 19.0754L111.403 19.7307L112.414 21.0846L113.137 22.6795L113.513 24.4044L113.537 26.163L113.219 27.888L112.554 29.5069L111.576 30.9283L110.357 32.0509L109.384 32.6532L108.28 33.1158L107.119 33.4049L105.847 33.5398L105.606 33.612L105.438 33.8L104.855 35.1394L97.2947 62.242L96.7695 64.5741L96.5383 64.9499L96.1191 65.0944H17.4372L17.2348 65.027L17.1144 64.8535L8.27292 33.853L8.12837 33.6361L7.87782 33.5542L6.53353 33.4482L5.29043 33.1543L4.11477 32.6628L3.06922 32.0028L2.22121 31.2511L1.49365 30.379L0.901009 29.4057L0.452908 28.3457L0.149364 27.2086L0 26.0137L0.00481559 24.8236L0.168634 23.6046L0.48664 22.4482L0.958825 21.393L1.73939 20.2125L2.69821 19.2055L3.85459 18.3623L5.13142 17.7311L6.49499 17.3312L7.91155 17.1722L9.29438 17.2637L10.6628 17.601L11.6457 18.025L12.5852 18.5984L13.4381 19.2922L14.2283 20.1306L15.11 21.4123L15.7171 22.7806L16.0303 24.0912L16.117 25.4788L15.9773 26.9388L15.6159 28.4758L15.2064 29.3961L14.3921 30.6103L13.9777 31.1981L13.9103 31.4246L13.997 31.651Z" fill="white"/>
<path d="M166.125 79.9735L166.082 80.118L165.971 80.2819L165.788 80.3397L162.931 80.118L159.963 79.5447L156.994 78.6292L154.104 77.415L151.314 75.9021L148.702 74.1386L146.356 72.1824L144.279 70.0335L143.797 69.5998L143.224 69.3059L141.123 68.3808L139.21 67.2003L137.476 65.75L135.929 64.0444L134.566 62.0737L133.395 59.8477L132.595 57.8385L132.017 55.8004L131.651 53.7044L131.516 51.6133L131.612 49.5415L131.93 47.5082L132.474 45.5279L133.236 43.615L134.305 41.654L135.626 39.8135L137.158 38.1512L138.926 36.6382L139.904 35.9589L140.945 35.3614L142.077 34.8218L143.258 34.3737L145.715 33.7377L148.22 33.4727L150.268 33.516L152.224 33.7666L154.089 34.2291L155.857 34.8989L157.809 35.9444L159.63 37.2791L161.326 38.898L162.892 40.806L163.923 42.3912L164.761 44.0631L165.45 46.0049L165.903 48.0526L166.168 50.5629L166.159 52.9865L165.87 55.3234L165.306 57.5687L164.521 59.5972L163.494 61.5485L162.217 63.4228L160.7 65.2152L158.989 66.8004L157.11 68.0869L155.323 68.9686L153.405 69.6191L153.39 69.6239L153.222 69.7733L153.217 69.9949L153.973 71.6379L154.918 73.175L156.031 74.5915L157.308 75.8683L158.715 76.9765L160.247 77.9113L161.851 78.6388L163.557 79.1688L165.812 79.5302L166.062 79.6651L166.135 79.9398L166.125 79.9735ZM137.596 51.623L137.717 54.8078L138.141 57.7903L138.589 59.5538L139.206 61.2498L139.962 62.7917L140.873 64.1986L141.87 65.379L143.007 66.3957L144.212 67.1811L145.542 67.7689L146.635 68.0773L147.801 68.2411L148.987 68.2603L150.234 68.1351L152.032 67.687L153.689 66.9305L155.106 65.9283L156.373 64.637L157.447 63.1048L158.353 61.3124L159.09 59.231L159.63 56.9423L159.972 54.4272L160.102 51.8205L160.02 49.209L159.722 46.6939L159.221 44.3956L158.517 42.2997L157.645 40.4928L156.599 38.9414L155.356 37.626L153.959 36.5997L152.311 35.8143L150.524 35.3373L149.276 35.1879H148.095L146.924 35.3325L145.826 35.6168L144.486 36.1853L143.262 36.9514L142.111 37.944L141.094 39.1052L140.155 40.5025L139.374 42.025L138.729 43.7114L138.252 45.4701L137.775 48.4381L137.596 51.623Z" fill="white"/>
<path d="M306.144 79.9687L306.101 80.1132L305.99 80.277L305.807 80.3349L302.95 80.118L299.982 79.5447L297.014 78.634L294.123 77.415L291.328 75.9069L288.717 74.1434L286.37 72.1872L284.289 70.0431L283.807 69.6095L283.234 69.3155L281.133 68.3904L279.22 67.21L277.485 65.7645L275.934 64.0588L274.57 62.0882L273.4 59.8622L272.595 57.8529L272.017 55.8148L271.651 53.7189L271.516 51.6278L271.607 49.5559L271.925 47.5226L272.465 45.5423L273.231 43.6295L274.296 41.6685L275.616 39.8231L277.148 38.1608L278.916 36.6479L279.895 35.9685L280.935 35.3662L282.068 34.8266L283.243 34.3785L285.705 33.7377L288.211 33.4727L290.259 33.516L292.215 33.7666L294.079 34.2243L295.848 34.894L297.799 35.9396L299.625 37.2742L301.321 38.8932L302.887 40.8012L303.918 42.3864L304.757 44.0535L305.45 46.0001L305.903 48.043L306.173 50.5581L306.164 52.9817L305.874 55.3137L305.311 57.559L304.53 59.5923L303.499 61.5437L302.227 63.418L300.709 65.2104L299.004 66.8004L297.12 68.0869L295.337 68.9686L293.419 69.6239L293.4 69.6287L293.236 69.7733L293.231 69.9997L293.988 71.6379L294.932 73.175L296.05 74.5915L297.327 75.8732L298.729 76.9765L300.266 77.9113L301.871 78.634L303.581 79.164L305.831 79.5254L306.082 79.6603L306.154 79.9349L306.144 79.9687ZM277.587 51.623L277.712 54.8078L278.136 57.7903L278.579 59.5586L279.196 61.2546L279.952 62.7917L280.863 64.2034L281.865 65.3839L282.998 66.3957L284.207 67.1859L285.537 67.7737L286.63 68.0773L287.796 68.2459L288.982 68.2652L290.23 68.1399L292.027 67.6918L293.689 66.9353L295.101 65.9331L296.368 64.6419L297.447 63.1048L298.348 61.3173L299.086 59.2358L299.63 56.9471L299.972 54.432L300.102 51.8253L300.02 49.2138L299.717 46.6939L299.221 44.3956L298.517 42.2997L297.645 40.4928L296.599 38.9414L295.356 37.626L293.959 36.5997L292.311 35.8143L290.524 35.3373L289.276 35.1879L288.09 35.1831L286.924 35.3277L285.821 35.6119L284.481 36.1805L283.258 36.9466L282.106 37.9392L281.089 39.1004L280.15 40.4976L279.369 42.025L278.719 43.7066L278.247 45.4653L277.77 48.4381L277.587 51.623Z" fill="white"/>
<path d="M246.817 47.502L245.757 47.4924L244.273 47.4683L243.811 47.3767L243.44 47.2129L243.281 47.0587L243.18 46.7889L243.218 46.5046L243.382 46.2685L243.637 46.1385L244.943 45.7048L246.095 45.0543L246.842 44.4521L247.502 43.7341L248.085 42.9006L248.591 41.9562L249.506 39.7302L249.872 38.1932L249.949 37.9234L250.118 37.7017L250.364 37.5572L250.643 37.5234H250.672L250.932 37.5957L251.149 37.7595L251.294 37.9908L251.347 38.2558L251.351 45.3483L251.443 45.5699L251.66 45.6614H256.642L256.974 45.7964L257.109 46.1288V46.8853L256.994 47.2274L256.796 47.3816L256.555 47.4394H251.747L251.491 47.5406L251.371 47.7911V47.8152L251.356 64.4911L251.496 65.3295L251.862 65.9896L252.204 66.3221L252.609 66.5678L253.534 66.8039L254.464 66.6786L255.336 66.1968L255.842 65.5608L256.449 64.7947L257.056 64.4381L257.606 64.4044L257.634 64.4092L257.774 64.5249L257.779 64.7079L257.051 66.2546L256.285 67.464L255.447 68.3987L254.522 69.0781L253.871 69.4009L253.144 69.6466L251.563 69.8731L250.797 69.8538L250.108 69.7334L249.463 69.5069L248.904 69.1841L248.142 68.4373L247.569 67.3869L247.222 66.1341L247.092 64.6357L247.044 56.0688L247.092 47.82L247.015 47.608L246.817 47.502Z" fill="white"/>
<path d="M225.496 49.4279L225.587 49.5966L225.78 49.611L225.848 49.558L226.936 48.4065L228.17 47.3513L229.476 46.4695L230.762 45.8191L232.029 45.3903L233.205 45.2072L234.323 45.2505L235.397 45.5396L236.366 46.0696L237.262 46.8695L238.018 47.8957L238.683 49.2063L238.939 49.9579L239.122 50.8349L239.276 52.9597L239.363 65.2173L239.435 65.9497L239.642 66.6291L240.196 67.5349L240.842 67.9733L242.022 68.3299L242.827 68.5564L243.049 68.7105L243.131 68.9129L243.054 69.2213L242.774 69.3755H242.745L237.296 69.4188L231.644 69.361L231.417 69.2936L231.263 69.1153L231.225 68.8888L231.311 68.6672L231.533 68.5178L233.325 68.0071L233.745 67.8288L234.111 67.559L234.4 67.2073L234.593 66.7977L234.891 65.4631L234.993 63.7911L234.988 54.0342L234.925 52.4201L234.742 51.1481L234.429 50.1507L233.971 49.4328L233.427 48.9461L232.839 48.6185L232.145 48.4161L231.422 48.3728L230.661 48.4691L229.799 48.7245L228.912 49.1196L227.982 49.664L227.014 50.3579L226.103 51.1336L225.669 51.7503L225.51 52.4875L225.554 64.7596L225.631 65.7618L225.833 66.6001L226.19 67.2892L226.657 67.771L227.428 68.1275L229.254 68.7057L229.447 68.9659L229.312 69.2598L229.143 69.3176L223.834 69.4236L218.095 69.361L217.608 69.2839L217.382 69.0045L217.498 68.6624L217.642 68.5805L219.55 68.0023L219.955 67.8288L220.311 67.5686L220.601 67.2362L220.808 66.8459L221.121 65.6558L221.232 64.1525L221.198 50.8156L221.058 49.8471L220.885 49.4761L220.654 49.2159L220.263 49.0039L219.81 48.9124L218.384 49.0232L217.681 49.1148L217.329 48.975L217.242 48.6088L217.3 48.4788L217.579 48.18L217.787 48.0596L223.169 45.6167L224.132 45.2602L225.091 45.1445L225.346 45.2361L225.496 45.5493V49.4279Z" fill="white"/>
<path d="M340.195 54.7324L339.963 54.824L339.857 55.0504L339.886 56.8091L340.19 58.6256L340.773 60.4854L341.635 62.3983L342.324 63.545L343.1 64.4894L343.967 65.2314L344.921 65.771L345.89 66.0938L346.935 66.2432L348.058 66.2143L349.253 66.0167L350.481 65.6554L351.59 65.1784L352.587 64.5761L353.464 63.8534L354.432 62.7403L355.203 61.425L355.454 61.1503L355.82 61.0684L355.897 61.0732L355.936 61.078L356.157 61.2274L356.186 61.4972L355.382 63.4245L354.317 65.1591L353.459 66.2095L352.481 67.1683L351.016 68.2813L349.436 69.1245L347.788 69.6497L346.15 69.8521L345.167 69.828L344.198 69.7027L343.254 69.4714L342.334 69.1438L341.433 68.7102L340.566 68.1898L339.751 67.5827L338.99 66.8889L337.67 65.3037L337.116 64.4123L336.639 63.4583L336.248 62.4705L335.945 61.4298L335.627 59.329L335.617 57.2716L335.853 55.1902L336.325 53.1858L337.01 51.3645L337.901 49.7311L338.951 48.3483L340.204 47.1726L341.582 46.2764L343.216 45.6067L344.955 45.2501L346.439 45.1875L347.87 45.3272L349.282 45.679L350.607 46.2234L351.826 46.951L352.915 47.852L353.859 48.9024L354.63 50.0925L355.097 51.0898L355.444 52.1547L355.661 53.2291L355.753 54.3566L355.647 54.6264L355.386 54.7372H355.382L340.195 54.7324ZM340.195 53.5809L350.004 53.4652L350.183 53.393L350.265 53.2243V53.1954V53.1087L350.154 51.9186L349.845 50.7718L349.354 49.7215L348.704 48.8012L347.913 48.0544L347.017 47.5002L346.049 47.163L345.042 47.057H345.003L344.001 47.1871L343.037 47.5484L342.156 48.1218L341.385 48.8927L340.753 49.8275L340.291 50.8875L340.011 52.039L339.925 53.234L339.929 53.3207L340.007 53.5086L340.195 53.5809Z" fill="white"/>
<path d="M363.638 55.0474L363.663 56.8109L363.971 58.6226L364.554 60.4824L365.416 62.3953L366.105 63.542L366.886 64.4864L367.753 65.2284L368.707 65.768L369.676 66.0908L370.721 66.2354L371.839 66.2113L373.039 66.0089L374.263 65.6476L375.376 65.1706L376.368 64.5683L377.25 63.8455L378.214 62.7325L378.985 61.4172L379.235 61.1425L379.601 61.0558L379.678 61.0606L379.722 61.0654L379.939 61.2196L379.968 61.4846L379.168 63.4167L378.098 65.1513L377.24 66.1968L376.267 67.1605L374.802 68.2735L373.222 69.1167L371.579 69.6419L369.936 69.8491L368.953 69.825L367.985 69.6949L367.04 69.4684L366.125 69.1408L365.219 68.7072L364.352 68.1868L363.537 67.5797L362.776 66.8907L361.456 65.3055L360.902 64.4093L360.42 63.4601L360.03 62.4675L359.726 61.4316L359.408 59.3309L359.398 57.2687L359.63 55.192L360.107 53.1876L360.786 51.3663L361.677 49.7329L362.728 48.3453L363.981 47.1696L365.359 46.2734L366.992 45.6037L368.731 45.2471L370.211 45.1797L371.646 45.3194L373.058 45.6712L374.383 46.2156L375.602 46.9432L376.691 47.8394L377.631 48.8946L378.406 50.0847L378.874 51.082L379.221 52.1421L379.437 53.2213L379.529 54.3488L379.428 54.6138L379.168 54.7294H379.163H363.976L363.745 54.821L363.638 55.0474ZM363.956 53.549L373.766 53.5104L373.954 53.4333L374.031 53.2454V53.1539L373.93 51.9638L373.632 50.817L373.15 49.757L372.509 48.8319L371.724 48.0755L370.832 47.5117L369.864 47.1696L368.861 47.054H368.823L367.816 47.1744L366.852 47.5262L365.966 48.0947L365.185 48.8608L364.549 49.7907L364.077 50.8459L363.788 51.9975L363.691 53.1924V53.284L363.769 53.4719L363.956 53.549Z" fill="white"/>
<path d="M390.124 49.424L390.215 49.5927L390.408 49.6071L390.476 49.5541L391.565 48.4026L392.798 47.3522L394.104 46.4705L395.39 45.8248L396.657 45.396L397.833 45.2129L398.951 45.2563L400.025 45.5502L400.989 46.0802L401.885 46.88L402.642 47.9063L403.302 49.2169L403.557 49.9685L403.74 50.8454L403.89 52.9703L403.967 65.2182L404.034 65.9506L404.241 66.63L404.795 67.5358L405.436 67.9791L406.622 68.3356L407.421 68.5621L407.643 68.7163L407.725 68.9187L407.648 69.227L407.373 69.3764H407.339L401.89 69.4149L396.248 69.3523L396.021 69.2848L395.867 69.1066L395.829 68.8801L395.915 68.6585L396.137 68.5091L397.929 68.0032L398.349 67.8249L398.71 67.5503L398.999 67.2033L399.197 66.7938L399.495 65.4591L399.601 63.7872L399.606 54.0399L399.544 52.421L399.365 51.1538L399.047 50.1564L398.594 49.4385L398.05 48.9519L397.462 48.6242L396.768 48.4219L396.045 48.3785L395.284 48.4749L394.427 48.7254L393.535 49.1205L392.605 49.6601L391.637 50.354L390.726 51.1297L390.292 51.7464L390.133 52.4836L390.162 64.7461L390.239 65.7482L390.442 66.5866L390.794 67.2756L391.261 67.7575L392.032 68.114L393.858 68.697L394.051 68.9572L393.916 69.2511L393.747 69.3041L388.437 69.4053L382.704 69.3378L382.217 69.2607L381.991 68.9813L382.111 68.6392L382.256 68.5573L384.159 67.9791L384.568 67.8104L384.925 67.5503L385.214 67.2178L385.421 66.8275L385.73 65.6374L385.845 64.1341L385.826 50.8069L385.691 49.8384L385.513 49.4722L385.281 49.2072L384.896 48.9952L384.438 48.9037L383.017 49.0097L382.313 49.1012L381.962 48.9615L381.875 48.5953L381.933 48.4652L382.212 48.1713L382.419 48.046L387.801 45.6128L388.765 45.2563L389.724 45.1406L390.008 45.2611L390.129 45.5502L390.124 49.424Z" fill="white"/>
<path d="M216.87 65.3301L216.817 65.8601L216.648 66.3178L216.113 67.2237L215.506 67.9946L214.827 68.6354L214.07 69.1461L212.808 69.6569L211.382 69.8785L210.818 69.84L210.341 69.681L209.792 69.2618L209.334 68.5824L209.007 67.6814L208.761 66.5154L208.727 66.419L208.501 66.2648L208.24 66.366L206.997 67.5706L205.508 68.6547L204.521 69.1991L203.523 69.5894L202.487 69.8351L201.476 69.9219L200.493 69.8544L199.558 69.6279L198.695 69.2521L197.92 68.7269L196.971 67.7151L196.286 66.419L195.911 64.8964L195.867 63.239L196.007 62.3283L196.286 61.4659L196.725 60.6034L197.284 59.7987L198.021 58.9941L198.85 58.281L199.799 57.6257L200.791 57.0909L204.473 55.4961L208.361 54.0699L208.568 53.9157L208.645 53.6699L208.544 51.3668L208.226 49.7045L207.985 49.0348L207.662 48.4229L207.286 47.9266L206.819 47.5026L205.865 47.0063L204.733 46.7895L203.89 46.7847L203.191 46.881L202.589 47.093L202.116 47.4014L201.717 47.8543L201.389 48.4952L201.167 49.2757L200.965 50.4176L200.681 51.9209L200.324 52.7256L200.045 53.0436L199.722 53.2652L198.999 53.4628L198.247 53.3471L197.558 52.9568L197.024 52.3208L196.759 51.627L196.672 50.9139L196.71 50.2394L196.927 49.4154L197.303 48.659L197.867 47.9218L198.561 47.2713L199.452 46.645L200.425 46.1342L201.5 45.7343L202.56 45.4789L204.463 45.2428L206.207 45.2188L207.788 45.4115L209.214 45.8162L210.481 46.457L211.488 47.3388L212.143 48.3217L212.596 49.5311L212.856 51.0103L212.933 52.8316L212.943 64.7519L213.083 65.7155L213.492 66.419L213.786 66.6262L214.138 66.7081L214.509 66.6551L214.841 66.4768L216.557 65.1614L216.61 65.1374L216.788 65.1663L216.87 65.3301ZM208.51 55.7081L206.8 56.3103L205.113 57.0716L203.644 57.9004L202.391 58.8014L201.413 59.7216L200.705 60.6612L200.237 61.6682L200.054 62.6463L200.184 63.8557L200.676 65.041L201.442 66.0528L201.904 66.4238L202.396 66.6792L203.008 66.8478L203.644 66.8864L204.352 66.7996L205.065 66.5973L206.689 65.7878L208.395 64.5303L208.597 64.2653L208.669 63.9376V55.8237V55.8044L208.51 55.7081Z" fill="white"/>
<path d="M185.895 65.5518L185.876 65.4699L185.727 65.3735L185.568 65.4506L184.262 67.0021L182.706 68.3416L181.149 69.2619L180.398 69.5558L179.646 69.7437L178.789 69.8352L177.969 69.8256L177.141 69.7051L176.365 69.4787L175.425 69.045L174.577 68.4669L173.797 67.72L173.132 66.8479L172.587 65.865L172.178 64.8002L171.908 63.6631L171.783 62.473L171.73 51.1501L171.686 49.8492L171.542 48.8759L171.258 48.0857L170.848 47.5123L170.419 47.1654L169.875 46.9004L169.253 46.7318L168.506 46.6354H168.492L168.15 46.4571L168.039 46.0813V46.062L168.232 45.7248L168.593 45.5898L175.743 45.6525L175.946 45.7392L176.023 45.9368L176.047 62.579L176.11 63.2439L176.278 63.8703L176.803 64.8243L177.623 65.6723L178.76 66.3757L179.381 66.6022L180.003 66.7275L180.769 66.7516L181.525 66.6407L182.301 66.3902L183.048 66.0144L183.771 65.5084L184.436 64.8965L185.033 64.1979L185.549 63.427L185.785 62.8729L185.862 62.2754L185.794 49.8058L185.717 49.0445L185.539 48.3892L185.259 47.8351L184.888 47.3919L184.469 47.0835L183.973 46.857L182.744 46.6595L182.344 46.486L182.181 46.0765V45.9078L182.238 45.7344L182.465 45.6236L189.793 45.6139L190.073 45.7296L190.184 46.0042L190.227 63.4222L190.338 64.3087L190.656 65.4314L190.815 65.7349L191.061 65.9758L191.369 66.13L191.706 66.183H193.952L194.12 66.2312L194.26 66.5155L194.072 66.7756L187.461 69.787L186.695 70.0231L186.165 69.9123L185.876 69.5028L185.852 69.3534L185.895 65.5518Z" fill="white"/>
<path d="M325.876 65.5557L325.856 65.4738L325.707 65.3726L325.548 65.4497L324.237 67.0012L322.686 68.3358L321.13 69.2561L320.378 69.5501L319.626 69.7331L318.769 69.8247L317.95 69.8102L317.126 69.6898L316.35 69.4681L315.41 69.0297L314.567 68.4515L313.787 67.7047L313.126 66.8326L312.582 65.8545L312.172 64.7848L311.903 63.6477L311.782 62.4624L311.739 51.1492L311.7 49.8483L311.556 48.8798L311.276 48.0896L310.867 47.5162L310.438 47.1693L309.893 46.9043L309.272 46.7357L308.525 46.6393H308.515L308.173 46.4562L308.062 46.0852V46.0659L308.25 45.7238L308.617 45.5938L315.757 45.666L315.955 45.7528L316.037 45.9503L316.042 62.5732L316.104 63.2382L316.273 63.8645L316.793 64.8185L317.612 65.6617L318.745 66.37L319.366 66.5965L319.988 66.7217L320.754 66.7458L321.51 66.635L322.286 66.3845L323.028 66.0086L323.756 65.5075L324.42 64.8956L325.013 64.2018L325.529 63.4309L325.765 62.8768L325.847 62.2793L325.794 49.8242L325.717 49.0629L325.538 48.4076L325.264 47.8583L324.888 47.4102L324.473 47.1019L323.977 46.8754L322.749 46.6779L322.349 46.4996L322.185 46.0949V45.9262L322.233 45.772L322.469 45.6419H329.793L329.985 45.6949L330.13 45.8347L330.183 46.0322L330.202 63.4309L330.313 64.3174L330.631 65.4401L330.79 65.7436L331.036 65.9845L331.339 66.1387L331.677 66.1917H333.922L334.091 66.2447L334.23 66.529L334.042 66.7844L327.432 69.7861L326.671 70.0174L326.136 69.9114L325.851 69.5019L325.827 69.3525L325.876 65.5557Z" fill="white"/>
<path d="M20.8255 79.5861L18.4453 71.2361L18.4935 70.9759L18.7296 70.8555H94.7518L94.9879 70.9759L95.0409 71.2361L92.6655 79.5861L92.5498 79.7499L92.3764 79.8029H21.1146L20.893 79.7066L20.8255 79.5861Z" fill="white"/>
<path d="M588.923 36.5979L588.813 36.577L588.641 36.3627L588.724 36.1014L589.566 35.5788L594.243 33.5823L595.816 33.023L597.134 32.7617L597.374 32.8401L597.484 33.0701V33.0858L597.494 65.8659L597.646 67.068L598.08 68.0976L598.221 68.3067L598.623 68.6098L600.917 69.3676L601.064 69.446L601.194 69.7439V69.7648L601.074 70.1098L600.735 70.2613L594.51 70.3136L589.184 70.2195L588.876 70.0366L588.871 69.6812L588.98 69.5558L589.67 69.2474L590.789 69.0018L591.4 68.7875L592.033 68.1864L592.451 67.2196L592.67 65.9077L592.717 64.1151V64.0471L592.702 41.1867L592.618 39.3784L592.315 37.6223L592.142 37.2146L591.844 36.8854L591.452 36.6711L591.013 36.5979H588.923Z" fill="white"/>
<path d="M435.24 54.4483L435.193 60.1399L435.324 65.5963L435.402 66.3436L435.575 67.0074L435.841 67.5823L436.207 68.0736L436.662 68.4708L437.216 68.7844L437.859 69.0091L438.601 69.1502L439.824 69.3436L440.028 69.5004L440.117 69.7408L440.012 70.138L439.662 70.2635L425.096 70.253L424.746 70.1223L424.552 69.7983L424.526 69.6624L424.662 69.4638L427.427 68.915L427.929 68.753L428.383 68.4812L428.76 68.1049L429.042 67.6555L429.449 66.3436L429.601 64.6921L429.617 42.4798L429.46 38.8317L429.272 37.9171L428.854 37.1488L428.362 36.6784L427.662 36.2969L426.81 36.0199L425.577 35.7586L424.73 35.5861L424.625 35.5443L424.484 35.2882L424.615 35.0269L424.934 34.8753L425.331 34.8231L439.667 34.7812L441.334 34.8596L442.876 35.0582L444.376 35.3927L445.719 35.8318L446.932 36.3858L448.056 37.0704L449.033 37.8544L449.906 38.769L450.251 39.2185L450.831 40.107L451.301 41.0216L451.662 41.9571L451.913 42.9136L452.08 44.3456L452.012 45.8195L451.714 47.3404L451.181 48.9083L450.585 50.1051L449.843 51.1295L448.787 52.1696L447.475 53.0424L446.002 53.7061L444.298 54.1922L442.374 54.4901L440.273 54.5894L437.963 54.4901L435.533 54.2027H435.517L435.324 54.2654L435.24 54.4483ZM435.24 38.3927L435.199 51.1556L435.287 51.6574L435.549 52.1016L435.951 52.4204L436.437 52.5825L436.631 52.5929L438.643 52.6034L440.007 52.4622L441.319 52.0441L442.531 51.3595L443.592 50.4396L444.465 49.3159L445.118 48.0302L445.521 46.6348L445.662 45.1818V44.4292L445.536 42.9815L445.139 41.5808L444.502 40.2951L443.634 39.161L442.578 38.2307L441.371 37.5408L440.059 37.1122L438.695 36.9659L436.683 36.9554L436.207 37.0391L435.784 37.2743L435.46 37.6349L435.277 38.0844L435.24 38.3927Z" fill="white"/>
<path d="M506.539 48.3406L506.272 48.4503L506.157 48.7169L506.194 65.6296L506.309 66.3926L506.58 67.0355L507.025 67.5843L507.594 67.9553L508.138 68.1121L508.728 68.1226L509.298 67.9919L509.883 67.7202L510.213 67.4484L511.854 65.5773L511.927 65.5198L512.178 65.5146L512.324 65.7184L512.309 66.4763L512.042 67.2759L511.321 68.5041L510.448 69.5128L509.397 70.3438L508.263 70.924L507.061 71.2584L505.859 71.3159L504.709 71.1017L503.654 70.5999L502.661 69.7114L501.955 68.5668L501.5 67.1191L501.349 65.478L501.364 48.7953L501.255 48.5235L500.988 48.4033L498.432 48.304L497.999 48.2204L497.748 48.0218L497.701 47.9225L497.685 47.8754L497.648 47.4521L497.779 47.0549L498.061 46.7361L498.443 46.5531L499.075 46.365L500.079 45.9051L500.983 45.2936L501.835 44.5044L502.577 43.5897L503.251 42.5183L503.842 41.2692L504.296 39.9783L504.641 38.5828L504.741 38.3476L504.939 38.1804L505.645 37.9766L505.812 37.987L506.047 38.1072L506.147 38.3581V46.02V46.0305L506.225 46.203L506.397 46.2709H511.195L511.462 46.3284L511.681 46.48L511.859 46.9347V47.5984L511.807 47.8859L511.645 48.1263L511.404 48.2831L511.122 48.3406H506.539Z" fill="white"/>
<path d="M462.038 49.776L462.101 49.8857H462.231L462.278 49.8387L463 48.6732L463.81 47.6384L464.703 46.7446L465.686 45.9868L466.355 45.621L467.076 45.3858L467.824 45.2812L468.571 45.3022L469.297 45.4537L469.977 45.7359L470.547 46.1123L471.038 46.5983L471.409 47.1628L471.639 47.9676L471.587 48.4903L471.378 49.0181L470.844 49.7551L470.238 50.1941L469.585 50.3875L468.775 50.3822L467.86 50.1836L466.621 49.7603L466.015 49.5408L465.561 49.4467L465.101 49.4728L464.662 49.6244L464.28 49.8805L463.318 50.9101L462.623 52.0599L462.179 53.4083L462.027 54.8926L461.986 59.1626L461.991 64.5093L462.111 66.1504L462.325 67.4204L462.696 68.1207L463.365 68.5441L466.449 69.4535L466.517 69.4796L466.71 69.7096L466.7 70.0179L466.449 70.2061L466.381 70.2165L460.036 70.3106L454.899 70.2688L453.681 70.1329L453.508 70.0232L453.414 69.8402L453.425 69.6364L453.535 69.4587L453.717 69.3646L455.51 68.9517L455.939 68.7949L456.32 68.5336L456.629 68.1939L456.843 67.7915L457.104 66.6155L457.198 64.8229L457.162 51.37L457.021 50.3822L456.613 49.6087L456.174 49.2063L455.818 49.0391L455.416 48.9816L454.214 49.1331L453.676 49.2324H453.655L453.44 49.1593L453.352 48.9502L453.393 48.6889L453.571 48.3857L453.885 48.1297L459.785 45.6628L460.752 45.3649L461.677 45.2969L461.933 45.4119L462.038 45.6785V49.776Z" fill="white"/>
<path d="M485.325 45.2533L486.458 45.4099L487.571 45.6907L488.651 46.0931L489.688 46.6133L490.674 47.2461L491.597 47.9856L492.45 48.8246L493.224 49.7549L493.911 50.7678L494.506 51.8533L495.001 53.0011L495.394 54.2001L495.678 55.4388L495.853 56.7052L495.916 57.9871L495.867 59.2721L495.706 60.548L495.434 61.8024L495.055 63.0232L494.572 64.1988L493.989 65.3176L493.312 66.369L492.549 67.3429L491.705 68.23L490.79 69.0215L489.811 69.7099L488.779 70.2886L487.704 70.752L486.595 71.0957L485.464 71.3163L484.321 71.4117L483.177 71.381L482.044 71.2244L480.932 70.9436L479.851 70.5412L478.814 70.0211L477.828 69.3882L476.905 68.6488L476.052 67.8098L475.278 66.8794L474.591 65.8665L473.996 64.781L473.501 63.6332L473.108 62.4342L472.824 61.1955L472.649 59.9291L472.586 58.6473L472.635 57.3622L472.796 56.0863L473.068 54.8319L473.447 53.6111L473.931 52.4355L474.513 51.3167L475.19 50.2653L475.953 49.2914L476.797 48.4043L477.712 47.6129L478.691 46.9244L479.723 46.3457L480.798 45.8823L481.907 45.5386L483.038 45.318L484.181 45.2227L485.325 45.2533ZM483.365 47.29L482.739 47.395L482.127 47.6052L480.971 48.332L479.941 49.4425L479.078 50.8941L478.415 52.6309L477.977 54.5863L477.781 56.685L477.834 58.8465L478.134 60.9876L478.671 63.0261L479.422 64.8836L480.361 66.4888L481.449 67.78L482.646 68.7074L483.905 69.2357L484.543 69.3431L485.178 69.3443L485.805 69.2393L486.417 69.0291L487.573 68.3023L488.603 67.1918L489.465 65.7402L490.129 64.0034L490.567 62.048L490.763 59.9493L490.71 57.7878L490.409 55.6467L489.873 53.6082L489.121 51.7507L488.183 50.1455L487.095 48.8543L485.898 47.9269L484.639 47.3986L484.001 47.2912L483.365 47.29Z" fill="white"/>
<path d="M527.137 45.2573L528.27 45.4138L529.383 45.6945L530.463 46.0968L531.501 46.6168L532.486 47.2494L533.41 47.9886L534.262 48.8273L535.036 49.7574L535.724 50.7698L536.318 51.855L536.814 53.0023L537.206 54.2009L537.491 55.4391L537.665 56.7049L537.728 57.9863L537.679 59.2709L537.518 60.5463L537.247 61.8001L536.867 63.0205L536.384 64.1955L535.802 65.3139L535.125 66.3649L534.361 67.3384L533.518 68.225L532.603 69.0162L531.624 69.7043L530.592 70.2827L529.517 70.7459L528.408 71.0894L527.277 71.3099L526.134 71.4052L524.99 71.3745L523.856 71.218L522.744 70.9372L521.664 70.535L520.626 70.015L519.641 69.3824L518.717 68.6431L517.865 67.8045L517.091 66.8744L516.403 65.862L515.809 64.7768L515.313 63.6294L514.921 62.4309L514.636 61.1927L514.461 59.9268L514.398 58.6455L514.448 57.3609L514.609 56.0855L514.88 54.8316L515.26 53.6113L515.743 52.4363L516.325 51.3179L517.002 50.2669L517.765 49.2934L518.609 48.4068L519.524 47.6156L520.503 46.9275L521.535 46.349L522.61 45.8859L523.719 45.5424L524.85 45.3219L525.993 45.2266L527.137 45.2573ZM525.183 47.2888L524.556 47.3938L523.944 47.6039L522.788 48.3307L521.759 49.4412L520.896 50.8928L520.233 52.6296L519.795 54.585L519.598 56.6837L519.651 58.8452L519.952 60.9863L520.488 63.0248L521.24 64.8824L522.178 66.4875L523.267 67.7787L524.463 68.7062L525.723 69.2344L526.361 69.3418L526.996 69.343L527.623 69.238L528.235 69.0279L529.391 68.3011L530.42 67.1906L531.283 65.739L531.946 64.0021L532.385 62.0468L532.581 59.948L532.528 57.7866L532.227 55.6454L531.691 53.607L530.939 51.7494L530.001 50.1443L528.913 48.8531L527.716 47.9256L526.456 47.3974L525.818 47.29L525.183 47.2888Z" fill="white"/>
<path d="M561.155 61.1331H561.171L561.385 61.1958L561.49 61.3944L561.401 62.5965L560.983 63.9971L560.241 65.5912L559.305 67.086L558.589 67.9797L557.821 68.7689L556.969 69.4797L556.075 70.0755L555.129 70.5668L554.152 70.9326L553.159 71.1835L552.155 71.3194H550.864L549.584 71.1312L548.33 70.7549L547.117 70.2009L545.978 69.4744L544.917 68.5703L543.971 67.5407L543.119 66.3543L542.575 65.3926L542.115 64.363L541.441 62.0581L541.133 59.586L541.206 57.0564L541.645 54.5791L542.439 52.222L543.568 50.1157L544.227 49.2011L544.959 48.3597L546.5 47.0322L548.199 46.0705L549.892 45.5113L551.722 45.2656L553.687 45.3231L555.788 45.689L557.387 46.2325L558.709 47.006L559.744 48.0095L560.397 49.1645L560.648 50.1785L560.659 51.3178L560.413 52.107L560.105 52.5147L559.676 52.8492L558.824 53.2359L557.998 53.3195L557.512 53.2255L557.037 53.0216L556.117 52.2847L555.824 51.7203L555.458 50.5652L555.14 49.614L554.774 48.8771L554.335 48.2917L553.786 47.837L552.955 47.4816L551.91 47.3614L550.812 47.4712L549.798 47.7795L549.082 48.1506L548.413 48.6314L547.797 49.2325L547.227 49.9485L546.375 51.4224L545.863 52.8649L545.575 54.4589L545.513 56.2725L545.659 58.3996L545.905 59.8421L546.328 61.3003L546.913 62.6853L547.614 63.8822L548.434 64.9274L549.312 65.7428L550.279 66.3699L551.361 66.809L551.983 66.9553L552.955 67.0755L553.854 67.0807L554.732 66.971L555.537 66.7515L556.859 66.0825L558.093 65.0424L559.31 63.5686L560.638 61.5146L560.998 61.1801L561.155 61.1331Z" fill="white"/>
<path d="M586.769 66.3228L586.931 66.2863L587.281 66.464L587.323 66.8507L586.832 67.8699L586.252 68.7479L585.578 69.4744L584.815 70.0597L583.649 70.6137L582.316 70.9064L581.329 70.8803L580.398 70.5981L579.635 70.1015L579.066 69.3908L578.752 68.45L578.637 68.2828L578.433 68.2671L578.386 68.2984L578.041 68.5545L575.841 70.1015L574.174 70.8855L572.862 71.2043L571.424 71.3193L569.998 71.1782L568.634 70.6921L567.74 70.1277L566.972 69.4221L566.344 68.5911L565.864 67.6556L565.545 66.6469L565.398 65.5755L565.435 64.525L565.649 63.4588L566.094 62.3978L566.841 61.3159L567.834 60.2968L569.109 59.2881L570.651 58.3055L572.454 57.3438L574.534 56.3874L577.304 55.248L578.24 54.8717L578.527 54.6366L578.642 54.2864V54.093L578.606 51.7516L578.344 50.053L577.827 48.8039L577.471 48.3283L577.027 47.931L576.118 47.4973L575.046 47.3561L574.2 47.4345L573.431 47.6854L572.658 48.1767L571.984 48.8875L571.66 49.614L571.404 50.9153L571.148 52.2167L570.803 52.8752L570.233 53.309L569.621 53.5495L569.02 53.5913L568.383 53.4606L567.808 53.1993L567.384 52.8125L567.118 52.3526L566.982 51.7934L566.972 51.1296L567.087 50.3613L567.395 49.3892L567.834 48.5269L568.571 47.6018L569.475 46.844L570.557 46.2325L571.848 45.7516L573.285 45.4328L574.874 45.2812L576.468 45.3074L578.088 45.5112L579.248 45.7934L580.231 46.1802L581.093 46.6976L581.794 47.3196L582.593 48.4955L583.126 50.0164L583.393 51.9397L583.419 54.4066L583.445 66.3594L583.503 66.7566L583.66 67.0754L584.12 67.4465L584.632 67.5772L585.332 67.4256L586.053 66.8978L586.769 66.3228ZM578.203 56.7846L576.536 57.3595L574.931 58.1801L573.379 59.2567L571.884 60.5842L571.252 61.295L570.766 62.0267L570.426 62.7793L570.233 63.5528L570.222 64.8647L570.599 66.234L571.127 67.1643L571.879 67.8281L572.475 68.0894L573.123 68.2044L573.86 68.1887L574.618 68.0371L575.491 67.734L576.337 67.3159L577.184 66.7671L577.926 66.1713L578.412 65.5023L578.585 64.6974L578.595 57.0825L578.59 57.0459L578.459 56.8264L578.203 56.7846Z" fill="white"/>
</svg>
